<?xml version="1.0" standalone="no"?>
<!DOCTYPE svg PUBLIC "-//W3C//DTD SVG 20010904//EN"
 "http://www.w3.org/TR/2001/REC-SVG-20010904/DTD/svg10.dtd">
<svg version="1.0" xmlns="http://www.w3.org/2000/svg"
 width="1400.000000pt" height="1400.000000pt" viewBox="0 0 1400.000000 1400.000000"
 preserveAspectRatio="xMidYMid meet">

<g transform="translate(0.000000,1400.000000) scale(0.100000,-0.100000)"
fill="#000000" stroke="none">
<path d="M0 7000 l0 -7000 7000 0 7000 0 0 7000 0 7000 -7000 0 -7000 0 0
-7000z m7018 5228 c48 -28 112 -64 142 -81 30 -16 60 -33 65 -37 10 -8 68 -41
405 -235 113 -64 210 -121 215 -125 6 -4 62 -37 125 -72 63 -35 176 -100 250
-143 74 -43 155 -89 180 -103 25 -14 61 -35 80 -47 19 -12 172 -101 340 -197
168 -97 343 -198 390 -225 47 -27 267 -154 490 -283 378 -217 460 -264 680
-392 102 -59 77 -45 285 -164 94 -54 194 -113 222 -131 l53 -33 0 -1415 0
-1415 -50 0 -50 0 0 1379 c0 759 -3 1386 -6 1395 -3 9 -10 16 -15 16 -4 0 -32
14 -61 32 -62 36 -103 60 -333 192 -93 53 -177 101 -185 106 -8 5 -62 37 -120
70 -58 34 -112 65 -120 70 -8 5 -40 24 -70 41 -30 18 -98 57 -150 87 -301 174
-482 278 -915 527 -88 50 -257 148 -375 217 -118 68 -269 155 -335 193 -66 38
-136 78 -155 90 -19 12 -55 33 -80 47 -25 14 -106 60 -180 103 -533 309 -808
465 -820 465 -6 0 -86 -43 -178 -96 -92 -53 -187 -108 -212 -122 -47 -26 -159
-91 -327 -189 -54 -31 -111 -64 -128 -73 -64 -36 -141 -81 -155 -90 -19 -11
-219 -127 -269 -156 -20 -11 -97 -56 -171 -99 -74 -42 -155 -89 -180 -103 -25
-13 -81 -46 -125 -72 -90 -52 -214 -124 -450 -260 -198 -114 -280 -161 -373
-217 -40 -24 -76 -43 -81 -43 -5 0 -19 -8 -32 -18 -13 -11 -44 -30 -69 -44
-25 -14 -160 -91 -300 -172 -140 -81 -262 -151 -270 -156 -8 -5 -40 -23 -70
-41 -30 -18 -84 -49 -120 -69 -36 -20 -136 -78 -224 -128 -87 -51 -162 -92
-167 -92 -5 0 -10 -580 -11 -1392 l-3 -1393 -48 -3 -47 -3 2 1422 3 1422 30
16 c34 19 152 86 175 101 8 5 62 36 120 70 58 33 112 65 120 70 8 5 58 33 110
63 52 30 129 74 170 98 41 24 91 52 110 63 19 10 71 40 115 66 114 67 244 142
450 260 99 57 200 115 225 130 51 31 201 117 242 140 16 8 166 95 335 193 170
98 315 182 323 187 8 5 40 23 70 41 30 18 84 49 120 69 36 20 81 46 100 57 43
25 342 197 620 358 113 65 264 152 335 193 72 42 143 83 160 91 16 9 35 22 43
29 22 20 39 15 130 -40z m-26 -371 c49 -28 454 -262 608 -352 30 -17 105 -60
165 -95 61 -34 135 -77 165 -95 30 -18 132 -77 225 -130 94 -54 238 -137 320
-185 83 -47 220 -126 305 -175 85 -48 166 -95 180 -104 14 -8 106 -62 205
-119 99 -57 194 -112 210 -122 470 -271 661 -381 780 -449 105 -60 225 -130
362 -210 l63 -36 -1 -1070 c-1 -1065 -1 -1069 -19 -965 -43 249 -140 584 -235
804 -70 163 -184 390 -240 476 -129 199 -256 381 -288 415 -6 7 -23 25 -36 41
-97 117 -299 323 -421 431 -36 32 -171 139 -215 171 -6 4 -28 20 -50 37 -132
99 -323 214 -505 306 -1107 553 -2417 514 -3489 -103 -121 -70 -269 -166 -326
-212 -22 -17 -52 -39 -67 -49 -55 -34 -286 -238 -385 -338 -171 -175 -268
-291 -400 -479 -315 -449 -522 -946 -617 -1486 l-24 -139 -1 1080 -1 1080 96
55 c53 30 113 65 133 76 20 12 169 98 331 192 162 93 399 229 525 302 127 74
243 140 259 149 17 9 35 20 40 24 6 4 137 80 291 169 154 88 294 169 310 179
17 11 37 22 45 26 8 4 38 20 65 36 74 44 203 119 465 269 129 75 291 168 360
208 69 40 150 86 180 103 30 16 66 38 80 47 14 9 50 31 80 47 30 17 129 74
220 127 91 52 172 96 180 95 8 0 40 -14 72 -32z m198 -1218 c25 -48 50 -147
50 -201 0 -60 -26 -154 -57 -208 -35 -60 -110 -133 -208 -202 -44 -31 -90 -67
-102 -80 -35 -38 -63 -116 -70 -197 -6 -73 -7 -75 -19 -46 -54 130 -7 265 141
405 220 207 228 220 233 375 3 75 -1 131 -11 175 l-15 64 19 -24 c11 -14 28
-41 39 -61z m180 -265 c41 -71 64 -164 55 -230 -15 -124 -100 -230 -294 -367
-149 -106 -176 -133 -191 -187 -16 -57 -7 -198 19 -305 17 -69 20 -100 8 -84
-86 115 -130 205 -148 302 -15 79 -5 122 47 208 43 71 90 114 235 217 130 91
180 141 200 198 20 57 17 247 -4 298 -10 21 -17 43 -17 49 0 19 61 -47 90 -99z
m1366 -1245 c88 -15 216 -82 267 -138 55 -62 96 -147 109 -226 27 -163 -79
-361 -272 -510 -170 -131 -457 -235 -649 -235 l-66 0 -24 -43 c-47 -81 -145
-203 -256 -314 l-112 -113 -886 0 -886 0 -102 103 c-129 129 -205 224 -275
343 -80 136 -112 243 -148 494 -28 199 -61 613 -50 631 3 5 597 9 1465 9
l1459 0 0 -61 0 -60 33 24 c118 89 251 122 393 96z m-37 -1668 c-91 -71 -322
-195 -449 -242 l-65 -24 -1225 -3 c-868 -2 -1242 0 -1285 8 -78 15 -143 39
-257 96 -90 45 -288 168 -288 179 0 3 808 5 1796 5 1754 0 1796 0 1773 -19z
m3191 -457 c0 -7 -58 -110 -176 -314 -39 -69 -127 -221 -194 -339 -121 -213
-122 -215 -107 -245 8 -17 119 -213 246 -435 127 -222 231 -406 231 -408 0 -1
-2200 -3 -4890 -3 -2689 0 -4890 2 -4890 3 0 2 104 186 231 408 127 222 238
418 246 435 l15 30 -242 423 c-133 232 -244 429 -247 437 -4 12 667 14 4886
14 2690 0 4891 -3 4891 -6z m-8880 -2478 l0 -424 128 -72 c70 -41 138 -81 152
-90 14 -9 50 -31 80 -47 126 -71 247 -139 270 -155 14 -9 48 -29 76 -45 47
-25 247 -141 284 -163 31 -19 547 -317 610 -352 50 -29 104 -60 300 -173 74
-43 191 -110 260 -150 69 -39 222 -128 340 -197 118 -68 269 -155 335 -193 66
-38 148 -86 183 -107 34 -21 65 -38 67 -38 3 0 38 -19 78 -43 39 -24 135 -80
212 -124 77 -45 226 -131 332 -192 105 -61 197 -111 204 -111 6 0 84 42 173
93 88 52 269 156 401 232 132 76 277 160 321 187 45 26 86 48 92 48 6 0 12 3
14 8 2 4 143 87 313 185 171 98 317 182 325 187 52 31 208 121 510 295 328
188 481 277 668 386 45 27 84 49 87 49 3 0 33 17 67 38 35 21 117 69 183 107
66 38 217 125 335 193 367 213 400 232 410 232 7 0 10 148 10 430 l0 430 55 0
55 0 0 -457 0 -458 -223 -128 c-122 -71 -229 -132 -237 -137 -8 -5 -53 -31
-100 -58 -167 -97 -278 -161 -515 -297 -132 -76 -310 -179 -395 -228 -85 -50
-191 -110 -235 -135 -44 -24 -84 -48 -90 -52 -5 -4 -149 -88 -320 -185 -170
-98 -326 -188 -345 -200 -19 -12 -55 -33 -80 -47 -25 -14 -103 -59 -175 -100
-71 -42 -205 -119 -297 -172 -93 -53 -243 -139 -335 -192 -93 -53 -226 -130
-297 -172 -72 -41 -144 -82 -160 -92 -17 -9 -70 -40 -118 -69 -91 -54 -108
-59 -130 -38 -8 6 -27 19 -43 28 -17 8 -88 49 -160 91 -71 41 -222 128 -335
193 -113 65 -306 177 -430 248 -124 72 -254 147 -290 167 -36 20 -90 51 -120
69 -70 41 -53 31 -277 160 -105 61 -243 141 -305 177 -62 37 -131 77 -153 89
-22 12 -84 47 -137 78 -195 113 -287 166 -523 302 -132 75 -260 150 -285 165
-25 16 -61 36 -80 47 -19 10 -69 38 -110 62 -41 24 -118 68 -170 98 -52 30
-102 58 -110 63 -8 5 -62 37 -120 70 -58 34 -112 65 -120 70 -54 32 -151 88
-183 105 l-37 20 0 457 0 458 55 0 55 0 0 -424z m4011 58 c42 -17 59 -43 59
-90 0 -40 -28 -84 -93 -151 l-61 -63 82 0 c83 0 83 0 80 -25 -2 -14 -6 -25
-10 -25 -5 0 -57 0 -118 0 -102 0 -110 1 -110 19 0 11 35 57 78 103 108 114
123 146 82 183 -15 14 -30 16 -67 13 -27 -3 -56 -9 -65 -13 -15 -6 -18 -2 -18
19 0 20 7 27 33 35 49 14 82 13 128 -5z m345 -5 c75 -62 77 -267 4 -334 -27
-24 -89 -30 -132 -12 -56 23 -73 64 -73 172 0 105 18 154 68 179 36 19 108 16
133 -5z m335 -17 c25 -27 49 -103 49 -152 0 -49 -24 -125 -49 -152 -56 -62
-162 -44 -197 35 -26 57 -26 187 -1 239 37 74 144 90 198 30z m-1269 -14 c3
-42 4 -43 41 -46 29 -3 37 -7 37 -23 0 -16 -7 -19 -40 -19 l-40 0 0 -72 c0
-105 5 -118 46 -118 27 0 34 -4 34 -20 0 -24 -42 -37 -79 -24 -38 14 -51 49
-51 147 0 86 0 87 -25 87 -37 0 -35 38 3 42 23 3 27 7 24 31 -4 30 12 57 34
57 8 0 14 -16 16 -42z m1540 -115 l3 -158 43 -3 c34 -3 42 -7 42 -23 0 -18 -8
-19 -125 -19 -118 0 -125 1 -125 20 0 18 7 20 55 20 l55 0 0 130 0 130 -32
-20 c-33 -20 -48 -18 -48 5 0 19 79 74 107 75 22 0 23 -2 25 -157z m-2005 57
c38 -23 50 -43 59 -99 l7 -41 -97 0 c-86 0 -96 -2 -96 -18 0 -52 90 -82 142
-48 27 18 38 13 38 -16 0 -22 -54 -48 -100 -48 -100 0 -165 108 -125 207 30
75 107 103 172 63z m288 8 c17 -7 25 -19 25 -36 0 -19 -3 -23 -17 -16 -37 16
-99 16 -112 0 -19 -23 -1 -41 65 -62 60 -19 77 -39 72 -87 -2 -23 -12 -38 -37
-54 -39 -27 -77 -29 -126 -9 -27 12 -35 21 -35 41 0 25 1 25 30 10 55 -28 120
-17 120 21 0 19 -9 26 -55 40 -90 29 -116 69 -79 122 28 40 97 54 149 30z
m-950 -58 l0 -45 -1055 -3 c-580 -1 -1065 0 -1077 3 -19 4 -23 12 -23 44 0 22
6 42 13 44 6 3 491 5 1077 4 l1065 -2 0 -45z m5369 44 c22 -8 22 -80 0 -88
-20 -8 -2108 -8 -2128 0 -20 7 -22 80 -3 87 18 8 2112 8 2131 1z m-4053 -194
c16 0 10 -60 -7 -67 -21 -8 -48 9 -52 31 -5 22 18 48 35 41 8 -3 19 -5 24 -5z
m-991 -230 c50 -27 45 -102 -7 -115 -62 -15 -103 73 -51 109 26 19 33 19 58 6z
m618 -18 c30 -39 3 -95 -46 -95 -40 0 -62 19 -62 52 0 62 70 90 108 43z m994
-189 l3 -198 26 2 c22 1 28 -4 33 -30 8 -40 -2 -49 -63 -55 -46 -4 -53 -2 -81
26 l-30 31 2 203 3 203 30 6 c81 17 74 33 77 -188z m-2166 158 c79 -36 109
-105 102 -232 -6 -94 -38 -157 -95 -185 -57 -29 -176 -26 -224 4 -100 61 -116
267 -30 363 60 67 164 88 247 50z m2622 -64 c3 -35 5 -37 38 -37 29 0 34 -4
34 -22 0 -50 -11 -68 -41 -68 l-29 0 0 -80 c0 -57 4 -80 13 -81 6 -1 23 -2 36
-3 18 -1 27 -9 33 -31 12 -45 -11 -58 -92 -52 -91 7 -100 20 -100 148 0 99 0
99 -25 99 -23 0 -25 4 -25 44 0 41 2 45 28 48 21 2 28 9 30 30 3 21 11 30 35
37 51 15 62 10 65 -32z m960 0 c3 -35 5 -37 38 -37 29 0 34 -4 34 -22 0 -50
-11 -68 -41 -68 l-29 0 0 -80 c0 -57 4 -80 13 -81 6 -1 23 -2 37 -3 18 -1 26
-9 34 -34 5 -18 6 -36 2 -40 -4 -4 -41 -7 -83 -7 -104 0 -113 12 -113 146 0
99 0 99 -25 99 -23 0 -25 4 -25 44 0 41 2 45 28 48 21 2 28 9 30 30 3 21 11
30 35 37 51 15 62 10 65 -32z m-3312 -62 l6 -25 30 25 c20 17 42 25 69 25 43
0 44 -1 27 -65 -10 -38 -15 -44 -33 -39 -40 10 -54 -22 -57 -131 l-3 -100 -52
-3 -53 -3 0 103 c0 93 -5 128 -25 194 -5 18 -1 24 22 32 46 17 62 14 69 -13z
m314 -99 c0 -115 1 -124 20 -129 26 -7 29 -71 4 -81 -31 -12 -82 -6 -105 13
-23 18 -24 25 -27 170 l-3 151 55 0 56 0 0 -124z m360 115 c24 -7 25 -10 32
-126 3 -66 10 -146 13 -177 9 -68 -5 -109 -44 -137 -37 -27 -106 -34 -166 -19
-48 13 -50 15 -48 47 2 47 12 54 68 41 63 -14 95 4 95 55 l0 34 -27 -25 c-24
-22 -35 -25 -76 -21 -79 7 -117 61 -117 164 0 74 34 132 95 159 31 14 132 17
175 5z m230 -115 c0 -113 2 -125 19 -131 18 -5 35 -51 25 -67 -12 -18 -78 -20
-109 -4 -27 15 -34 25 -39 63 -8 61 -8 248 1 256 3 4 28 7 55 7 l48 0 0 -124z
m190 99 l13 -25 23 21 c24 23 88 35 129 25 43 -11 55 -57 55 -206 l0 -131 -52
3 -53 3 -3 123 c-2 98 -6 124 -18 129 -8 3 -23 -4 -34 -17 -17 -20 -20 -38
-20 -132 l0 -109 -52 3 -53 3 -5 130 c-4 78 -11 139 -19 153 -15 27 -15 26 24
40 44 16 50 14 65 -13z m542 19 l45 -6 5 -122 c3 -84 10 -130 21 -152 l16 -32
-45 -12 c-48 -14 -63 -7 -64 28 0 9 -11 4 -31 -12 -35 -29 -73 -33 -124 -12
-39 17 -51 36 -66 104 -7 37 -7 62 1 93 30 110 95 143 242 123z m1086 0 l52
-7 0 -109 c0 -74 5 -120 15 -145 8 -19 15 -39 15 -43 0 -11 -84 -33 -88 -22
-6 19 -31 47 -32 35 0 -7 -13 -19 -30 -28 -115 -60 -217 74 -166 218 33 91 93
117 234 101z m351 -5 c17 -6 31 -12 31 -14 0 -1 -7 -19 -16 -40 -12 -29 -19
-35 -32 -29 -25 11 -66 10 -71 -1 -3 -5 10 -19 29 -30 85 -51 107 -97 78 -160
-23 -50 -102 -69 -190 -45 -48 14 -52 21 -32 63 l16 34 39 -15 c38 -15 69 -11
69 7 0 6 -24 26 -54 45 -30 19 -60 44 -65 55 -25 45 -5 102 44 129 26 15 113
15 154 1z m618 -13 c23 -20 28 -32 28 -71 0 -41 -4 -51 -34 -76 -19 -15 -56
-34 -83 -40 -49 -13 -55 -24 -25 -43 11 -7 32 -7 67 0 50 10 52 10 61 -13 5
-13 9 -31 9 -38 0 -21 -75 -38 -144 -33 -52 4 -63 8 -92 40 -40 44 -51 95 -36
167 19 88 72 130 169 131 41 0 58 -5 80 -24z"/>
<path d="M7585 9040 c-143 -3 -253 -6 -245 -8 8 -1 119 -11 245 -23 127 -12
234 -26 240 -31 5 -4 -81 -8 -190 -9 -110 -1 -238 -4 -285 -7 -82 -7 -75 -8
179 -31 146 -13 276 -27 290 -31 35 -9 -216 -20 -468 -20 -112 0 -202 -2 -199
-5 5 -5 182 -24 478 -51 107 -9 199 -20 203 -24 10 -8 -346 -20 -606 -20 -105
0 -188 -2 -186 -4 2 -2 60 -9 129 -15 69 -6 228 -20 354 -31 127 -11 232 -23
235 -25 2 -3 -58 -5 -135 -5 -76 0 -258 -3 -404 -7 -301 -8 -312 -5 220 -58
505 -51 509 -54 74 -61 -170 -2 -365 -7 -434 -11 l-125 -7 140 -13 c710 -69
740 -72 724 -87 -2 -2 -197 -7 -434 -12 -236 -4 -425 -8 -420 -10 10 -3 277
-29 605 -59 198 -18 232 -24 227 -38 -3 -9 -88 -13 -303 -15 -164 -2 -353 -6
-419 -10 l-120 -7 375 -33 c206 -19 389 -38 405 -42 18 -5 -47 -9 -170 -10
-110 -1 -220 -2 -245 -4 -25 -1 -135 -3 -245 -5 -110 -2 -189 -6 -175 -8 14
-2 168 -16 344 -33 175 -16 321 -31 324 -34 3 -3 -75 -6 -174 -6 -98 -1 -213
-2 -254 -4 -41 -2 -124 -4 -185 -6 l-110 -3 130 -12 c72 -7 211 -20 310 -29
99 -9 234 -22 300 -29 l120 -12 -165 -6 c-91 -3 -280 -7 -420 -8 -140 -1 -263
-6 -274 -10 -10 -4 104 -18 254 -30 149 -13 286 -27 303 -31 19 -5 -59 -9
-183 -10 -118 -2 -309 -6 -425 -9 l-210 -6 365 -29 c201 -15 379 -32 395 -36
17 -5 -97 -9 -265 -10 -258 -2 -569 -14 -470 -18 58 -3 460 -36 457 -38 -6 -6
-206 -14 -372 -15 l-190 -1 268 -23 c148 -13 271 -26 275 -29 3 -3 -109 -6
-249 -7 -260 -1 -295 -11 -83 -24 190 -12 178 -24 -26 -26 l-185 -1 205 -18
c278 -24 284 -27 70 -30 -102 -1 -178 -4 -170 -6 8 -1 164 -8 345 -14 182 -6
379 -13 439 -17 l110 -6 189 194 c109 113 209 225 238 269 58 88 101 193 129
319 29 129 70 464 73 584 l2 102 -145 0 c-80 1 -262 -2 -405 -5z"/>
<path d="M5601 9030 c-90 -13 -93 -16 -30 -29 95 -20 390 -13 404 9 3 4 -8 10
-23 14 -49 11 -286 15 -351 6z"/>
<path d="M8547 8999 c-56 -13 -126 -52 -187 -104 -62 -54 -68 -64 -69 -119
l-1 -39 28 39 c65 90 221 190 327 210 l40 8 -30 7 c-40 9 -63 9 -108 -2z"/>
<path d="M5580 8923 c-130 -25 173 -51 344 -29 44 6 55 11 47 19 -12 12 -339
21 -391 10z"/>
<path d="M8580 8921 c-65 -21 -122 -61 -201 -141 -53 -53 -91 -101 -97 -121
-6 -19 -16 -81 -22 -139 -7 -58 -20 -145 -30 -195 -10 -49 -17 -92 -14 -94 2
-2 42 3 88 12 279 55 567 264 599 435 16 83 -45 182 -138 223 -49 22 -148 33
-185 20z"/>
<path d="M5615 8810 l-30 -7 40 -9 c51 -11 290 -11 330 0 l30 9 -30 7 c-39 10
-301 10 -340 0z"/>
<path d="M9037 8740 c-12 -142 -64 -248 -168 -344 -136 -127 -404 -242 -611
-263 -65 -6 -78 -14 -78 -47 0 -45 246 6 429 90 165 76 367 244 421 350 27 55
38 176 23 249 -9 39 -9 38 -16 -35z"/>
<path d="M5667 8691 c-32 -5 -60 -11 -63 -14 -19 -19 229 -29 321 -13 48 8 49
9 20 17 -45 13 -213 19 -278 10z"/>
<path d="M5720 8564 c-120 -12 -67 -31 85 -32 55 -1 118 2 140 7 36 6 37 8 15
13 -35 9 -186 16 -240 12z"/>
<path d="M5745 8453 c-78 -7 -74 -20 8 -27 82 -8 223 2 210 15 -10 10 -152 18
-218 12z"/>
<path d="M5725 8311 l-30 -7 34 -7 c42 -9 208 -7 241 2 23 7 21 8 -15 14 -49
8 -189 7 -230 -2z"/>
<path d="M5765 8221 l-30 -7 34 -7 c42 -9 144 -8 196 2 l40 7 -49 7 c-58 8
-149 7 -191 -2z"/>
<path d="M5770 8140 c20 -13 200 -13 200 0 0 6 -42 10 -107 10 -74 0 -103 -3
-93 -10z"/>
<path d="M5854 8048 c31 -5 69 -5 100 0 47 9 43 10 -49 10 -90 0 -95 -1 -51
-10z"/>
<path d="M5878 7973 c23 -2 61 -2 85 0 23 2 4 4 -43 4 -47 0 -66 -2 -42 -4z"/>
<path d="M5958 7893 c18 -2 45 -2 60 0 15 2 0 4 -33 4 -33 0 -45 -2 -27 -4z"/>
<path d="M7435 7400 c33 -5 124 -11 203 -15 79 -4 140 -10 138 -13 -7 -6 -22
-7 -376 -11 l-285 -4 260 -13 c143 -6 294 -13 335 -15 l75 -2 -105 -7 c-58 -4
-197 -9 -310 -10 -224 -2 -327 -16 -150 -20 206 -5 424 -16 360 -19 -36 -2
-263 -9 -505 -16 l-440 -12 730 1 c727 1 730 1 775 23 55 26 195 117 204 132
5 8 -130 10 -481 10 -275 -1 -462 -5 -428 -9z"/>
<path d="M7078 7293 c7 -3 16 -2 19 1 4 3 -2 6 -13 5 -11 0 -14 -3 -6 -6z"/>
<path d="M3667 6574 c-86 -21 -141 -64 -180 -143 -32 -65 -32 -68 -32 -206 1
-119 4 -147 22 -185 23 -51 82 -112 129 -135 102 -48 285 -45 407 7 l48 21 -3
116 -3 116 -101 3 -101 3 -5 -55 c-3 -30 -10 -62 -17 -70 -17 -20 -61 -21 -87
-2 -17 13 -19 29 -22 154 -4 165 6 219 44 228 48 12 72 -9 79 -70 l7 -56 104
0 104 0 0 113 0 112 -38 18 c-92 44 -248 57 -355 31z"/>
<path d="M5105 6575 c-75 -20 -125 -89 -125 -172 0 -16 -6 -23 -20 -23 -18 0
-20 -7 -20 -75 0 -68 2 -75 20 -75 19 0 20 -7 20 -100 0 -93 -1 -100 -20 -100
-18 0 -20 -7 -20 -75 l0 -75 155 0 155 0 0 75 0 75 -35 0 -35 0 0 100 0 100
35 0 35 0 0 75 0 75 -35 0 c-38 0 -40 2 -25 31 9 15 22 19 65 19 l55 0 0 69 0
69 -44 11 c-57 14 -98 13 -161 -4z"/>
<path d="M5593 6578 c-75 -16 -133 -93 -133 -175 0 -16 -6 -23 -20 -23 -18 0
-20 -7 -20 -75 0 -68 2 -75 20 -75 19 0 20 -7 20 -100 0 -93 -1 -100 -20 -100
-18 0 -20 -7 -20 -75 l0 -75 155 0 155 0 0 75 0 75 -35 0 -35 0 0 100 0 100
35 0 35 0 0 75 0 75 -28 0 c-36 0 -44 8 -31 31 8 15 21 19 64 19 l55 0 0 69 0
69 -44 11 c-52 13 -94 13 -153 -1z"/>
<path d="M7832 6579 c-102 -17 -158 -61 -181 -144 -16 -59 -13 -100 10 -151
30 -63 90 -105 224 -155 63 -23 84 -49 59 -73 -8 -9 -22 -16 -29 -16 -28 0
-65 20 -65 35 0 12 -17 15 -100 15 l-100 0 0 -85 c0 -100 -3 -97 132 -121 163
-28 313 -7 382 54 57 51 75 192 33 267 -29 52 -97 97 -197 130 -71 24 -80 29
-80 51 0 21 4 24 40 24 29 0 43 -5 52 -20 11 -18 24 -20 105 -20 l93 0 0 80
c0 77 -1 80 -28 94 -73 38 -235 54 -350 35z"/>
<path d="M8397 6573 c-4 -3 -7 -35 -7 -71 0 -55 3 -65 20 -69 19 -5 20 -14 20
-203 0 -191 -1 -198 -20 -203 -19 -5 -21 -12 -18 -74 l3 -68 143 -3 142 -3 0
76 c0 68 -2 75 -20 75 -18 0 -20 7 -20 88 0 96 7 112 52 112 38 0 48 -24 48
-119 0 -74 -2 -81 -20 -81 -18 0 -20 -7 -20 -75 l0 -75 140 0 140 0 0 75 c0
67 -2 75 -19 75 -17 0 -19 10 -22 128 -4 120 -6 131 -31 169 -46 70 -147 83
-228 29 l-40 -26 0 125 0 125 -118 0 c-65 0 -122 -3 -125 -7z"/>
<path d="M4415 6381 c-72 -18 -127 -62 -156 -125 -26 -57 -26 -195 0 -251 52
-114 222 -168 364 -115 99 37 146 115 147 240 0 83 -30 165 -72 201 -59 49
-190 72 -283 50z m134 -179 c16 -38 11 -140 -6 -158 -8 -8 -24 -14 -36 -14
-43 0 -51 15 -55 93 -5 83 8 107 58 107 21 0 30 -7 39 -28z"/>
<path d="M6047 6375 c-58 -22 -94 -52 -124 -103 -25 -42 -28 -57 -28 -137 0
-75 4 -98 24 -138 45 -93 144 -135 291 -124 41 3 96 13 123 22 l47 17 0 70 0
70 -32 -6 c-18 -3 -70 -9 -116 -12 -71 -6 -85 -4 -102 11 -11 10 -20 26 -20
37 0 17 11 18 146 18 l147 0 -6 69 c-12 149 -92 221 -242 220 -38 0 -87 -7
-108 -14z m151 -157 c7 -7 12 -20 12 -30 0 -15 -9 -18 -50 -18 -41 0 -50 3
-50 18 0 25 20 42 50 42 14 0 31 -5 38 -12z"/>
<path d="M6735 6381 c-77 -19 -146 -81 -164 -148 -16 -56 -13 -163 5 -216 21
-62 77 -112 151 -133 74 -22 212 -14 278 15 l45 20 0 67 0 66 -32 -6 c-18 -3
-71 -8 -118 -12 -91 -6 -116 2 -122 41 -3 19 3 20 140 23 l142 3 0 64 c0 108
-48 179 -143 214 -32 12 -136 13 -182 2z m121 -159 c6 -4 14 -17 18 -29 7 -22
5 -23 -43 -23 -57 0 -71 13 -45 41 17 19 50 25 70 11z"/>
<path d="M9299 6375 c-95 -30 -159 -129 -159 -244 0 -155 89 -249 246 -259
195 -13 305 97 292 290 -7 86 -43 150 -110 191 -41 25 -59 30 -135 33 -60 3
-103 -1 -134 -11z m149 -157 c7 -7 12 -42 12 -88 0 -83 -9 -100 -50 -100 -41
0 -50 17 -50 100 0 83 9 100 50 100 14 0 31 -5 38 -12z"/>
<path d="M10123 6360 l-43 -30 0 25 0 25 -125 0 -125 0 0 -75 c0 -68 2 -75 20
-75 19 0 20 -7 20 -200 0 -193 -1 -200 -20 -200 -18 0 -20 -7 -20 -72 l0 -73
155 0 155 0 0 73 0 72 -30 0 c-29 0 -30 1 -30 50 l0 49 36 -24 c99 -68 217
-30 261 83 24 63 24 229 -1 287 -47 111 -161 149 -253 85z m47 -149 c5 -11 10
-47 10 -81 0 -76 -12 -100 -48 -100 -43 0 -52 17 -52 100 0 46 5 81 12 88 19
19 66 15 78 -7z"/>
<path d="M7248 4540 c-23 -14 -41 -111 -33 -175 8 -64 33 -95 79 -95 53 0 69
27 73 123 5 107 -14 151 -67 154 -19 2 -43 -2 -52 -7z"/>
<path d="M7565 4530 c-39 -43 -41 -187 -3 -235 25 -32 77 -34 104 -4 35 39 34
200 -2 240 -23 25 -76 25 -99 -1z"/>
<path d="M5865 4445 c-43 -42 -34 -55 40 -55 55 0 65 3 65 18 0 23 -10 37 -37
51 -31 16 -41 14 -68 -14z"/>
<path d="M4942 3938 c-31 -15 -45 -71 -41 -161 4 -63 8 -80 28 -101 41 -43 99
-30 121 28 15 40 12 151 -5 191 -8 21 -25 39 -40 45 -31 12 -33 12 -63 -2z"/>
<path d="M5878 3808 c-17 -32 -16 -137 1 -148 35 -21 61 28 61 116 0 51 -2 54
-25 54 -15 0 -29 -9 -37 -22z"/>
<path d="M6866 3808 c-20 -28 -21 -117 -2 -144 15 -19 15 -19 36 2 18 17 22
34 23 90 2 64 0 69 -20 72 -13 2 -27 -5 -37 -20z"/>
<path d="M7957 3812 c-23 -25 -24 -134 -1 -152 28 -24 48 11 52 95 4 69 3 75
-15 75 -11 0 -27 -8 -36 -18z"/>
<path d="M8913 3818 c-17 -22 -23 -47 -12 -54 16 -9 59 24 59 46 0 23 -32 28
-47 8z"/>
</g>
</svg>
