<?xml version="1.0" standalone="no"?>
<!DOCTYPE svg PUBLIC "-//W3C//DTD SVG 20010904//EN"
 "http://www.w3.org/TR/2001/REC-SVG-20010904/DTD/svg10.dtd">
<svg version="1.0" xmlns="http://www.w3.org/2000/svg"
 width="1000.000000pt" height="1000.000000pt" viewBox="0 0 1000.000000 1000.000000"
 preserveAspectRatio="xMidYMid meet">

<g transform="translate(0.000000,1000.000000) scale(0.100000,-0.100000)"
fill="#000000" stroke="none">
<path d="M4720 8869 c-806 -64 -1524 -346 -2150 -845 -173 -138 -455 -421
-594 -594 -501 -627 -783 -1350 -846 -2169 -43 -562 67 -1225 289 -1744 212
-495 467 -874 840 -1248 676 -675 1509 -1054 2480 -1129 450 -34 965 28 1418
171 458 144 880 370 1263 675 173 138 456 421 594 594 703 882 986 1982 795
3095 -61 359 -193 755 -360 1080 -549 1071 -1536 1819 -2704 2049 -340 67
-707 90 -1025 65z m460 -149 c585 -33 1112 -182 1606 -456 985 -544 1667
-1491 1868 -2594 44 -241 51 -338 51 -665 0 -327 -7 -424 -51 -665 -179 -979
-730 -1830 -1557 -2403 -332 -231 -741 -419 -1142 -527 -534 -143 -1141 -163
-1685 -54 -871 174 -1635 642 -2191 1340 -786 985 -1014 2317 -603 3517 282
822 847 1523 1594 1976 516 313 1111 497 1715 530 205 12 205 12 395 1z"/>
<path d="M4865 8604 c-165 -9 -344 -28 -475 -50 -1493 -254 -2673 -1423 -2940
-2915 -71 -398 -71 -873 1 -1270 241 -1341 1219 -2431 2529 -2819 333 -98 646
-142 1020 -142 421 1 772 59 1167 193 1192 406 2100 1440 2353 2677 48 239 61
360 67 635 6 286 -4 454 -43 687 -266 1591 -1574 2823 -3170 2984 -147 15
-409 25 -509 20z m65 -264 c90 -14 199 -69 248 -126 80 -90 113 -214 92 -345
-41 -265 -254 -388 -672 -389 -91 0 -129 4 -135 13 -4 6 -17 190 -28 407 -18
333 -19 397 -8 406 12 10 68 19 238 38 68 7 204 5 265 -4z m902 -86 c57 -20
106 -39 110 -43 5 -4 -26 -105 -67 -225 -42 -121 -80 -239 -85 -263 -22 -95
31 -173 116 -173 52 0 86 19 113 64 11 17 56 137 100 265 45 129 83 236 85
239 5 5 227 -67 238 -77 12 -10 -157 -487 -194 -548 -65 -108 -161 -163 -286
-163 -175 0 -347 91 -408 216 -22 45 -27 68 -27 132 0 93 4 107 100 390 47
137 81 222 89 222 7 0 59 -16 116 -36z m-1858 -168 c96 -56 134 -188 85 -296
-11 -24 -16 -46 -10 -48 5 -2 30 -17 55 -33 44 -30 226 -234 226 -254 0 -10
-205 -105 -227 -105 -6 0 -53 45 -104 100 -51 55 -102 103 -115 106 -19 5 -94
-11 -94 -21 0 -1 27 -63 59 -136 33 -74 57 -137 53 -141 -9 -8 -212 -98 -222
-98 -4 0 -83 169 -175 376 -158 356 -166 376 -149 389 30 23 224 122 284 145
148 58 253 63 334 16z m3010 -441 c103 -27 193 -82 288 -176 51 -50 90 -98 94
-114 8 -31 0 -40 -105 -112 -52 -36 -54 -36 -67 -18 -48 71 -64 89 -111 126
-96 75 -194 85 -273 28 -106 -77 -129 -196 -59 -302 30 -46 164 -147 194 -147
29 0 25 -23 -20 -105 -30 -54 -53 -85 -63 -85 -26 0 -130 56 -189 102 -144
111 -232 260 -233 394 0 56 33 159 68 214 109 169 290 243 476 195z m-3781
-320 c208 -110 376 -205 375 -211 -5 -17 -184 -184 -198 -184 -7 0 -51 21 -98
46 l-84 46 -73 -72 -72 -72 46 -89 46 -90 -92 -89 c-51 -50 -96 -90 -101 -90
-5 0 -39 62 -75 138 -36 75 -120 248 -186 385 -67 136 -121 253 -121 260 0 18
223 227 240 224 8 -1 185 -92 393 -202z m2697 -60 c104 -33 181 -71 240 -119
25 -20 79 -62 120 -95 107 -83 215 -201 293 -317 71 -108 181 -314 216 -410
13 -32 47 -98 76 -145 30 -47 79 -135 109 -195 53 -105 57 -110 111 -138 82
-43 147 -129 161 -214 9 -58 0 -83 -46 -131 l-41 -42 16 -90 c40 -228 35 -538
-11 -779 -115 -601 -492 -1142 -1018 -1460 -550 -331 -1237 -405 -1841 -197
-321 111 -585 274 -829 515 -867 854 -872 2243 -11 3107 427 429 1038 669
1634 641 129 -6 136 -5 185 19 171 84 460 106 636 50z m1829 -324 c34 -55 61
-103 61 -108 0 -4 -56 -42 -123 -83 l-122 -75 75 -7 c41 -4 123 -10 181 -14
l107 -6 76 -125 c42 -68 76 -132 76 -140 0 -12 -8 -14 -37 -10 -147 24 -404
59 -407 56 -2 -2 -58 -113 -125 -247 -73 -145 -127 -242 -134 -239 -14 4 -147
222 -147 241 0 7 38 83 84 167 70 129 81 155 67 161 -41 17 -76 6 -174 -53
-55 -33 -105 -58 -112 -56 -15 6 -127 195 -123 208 5 14 679 427 700 428 10 1
38 -35 77 -98z m-5373 -37 c46 -25 84 -50 84 -56 0 -6 -22 -50 -50 -98 -27
-48 -50 -91 -50 -96 0 -5 120 -76 265 -157 146 -82 265 -153 265 -159 0 -13
-86 -171 -108 -198 -17 -21 -18 -21 -286 130 -147 83 -269 150 -271 148 -1 -2
-26 -45 -55 -96 -29 -51 -58 -92 -64 -90 -26 7 -176 94 -176 102 0 6 218 400
337 609 8 13 26 7 109 -39z m-444 -930 c35 -20 73 -43 85 -50 l21 -13 -40 -80
c-34 -66 -41 -89 -42 -143 -1 -61 0 -63 24 -63 21 0 34 15 80 92 97 162 163
213 273 213 119 0 216 -76 248 -193 17 -64 6 -229 -20 -307 -27 -79 -90 -190
-108 -190 -16 0 -193 88 -193 96 0 3 11 20 25 38 48 63 79 146 79 216 1 55 -2
65 -17 68 -26 5 -53 -22 -100 -103 -85 -145 -179 -213 -283 -202 -176 18 -264
181 -220 408 18 92 88 249 111 249 8 0 42 -16 77 -36z m6186 -10 c95 -47 158
-151 188 -309 16 -89 14 -209 -4 -227 -5 -5 -53 -5 -107 -1 l-100 8 0 105 c0
112 -21 181 -57 188 -25 5 -35 -24 -48 -136 -12 -113 -28 -168 -65 -224 -57
-86 -191 -122 -293 -78 -130 56 -216 229 -216 435 -1 55 3 113 7 129 l8 29
106 -6 c58 -3 107 -8 109 -10 3 -2 0 -37 -6 -76 -15 -109 8 -228 49 -250 28
-16 49 9 56 67 23 193 42 252 98 311 71 74 180 92 275 45z m-5876 -1314 l45
-125 149 -5 149 -5 -117 -89 c-65 -50 -118 -94 -118 -100 0 -5 18 -68 41 -139
22 -71 39 -130 37 -133 -2 -2 -53 31 -114 74 -60 43 -114 81 -120 85 -7 4 -62
-30 -129 -79 -64 -47 -119 -83 -122 -80 -3 3 15 67 41 142 39 117 43 139 31
148 -8 6 -59 45 -114 86 -55 41 -100 78 -101 83 0 4 65 7 144 7 l144 0 40 113
c22 61 43 123 47 136 4 12 11 19 15 15 4 -5 28 -65 52 -134z m5653 3 l47 -133
144 0 c79 0 144 -3 144 -7 0 -5 -47 -43 -105 -87 -57 -43 -109 -84 -115 -90
-7 -9 3 -53 34 -149 24 -76 41 -137 38 -137 -3 0 -56 36 -118 80 -62 44 -119
80 -125 80 -6 0 -63 -37 -126 -81 -63 -45 -116 -79 -118 -77 -3 2 15 65 40
139 25 73 44 137 43 141 -2 4 -54 45 -117 92 -63 48 -110 87 -105 87 5 1 70 1
145 -1 124 -2 137 0 143 17 4 10 25 69 47 131 38 112 48 136 54 130 1 -2 24
-63 50 -135z m-730 -1137 l70 -65 -30 -33 c-17 -18 -73 -79 -124 -136 l-94
-104 35 -35 35 -35 112 126 c62 69 118 126 124 126 7 0 47 -33 90 -73 l79 -72
-118 -129 -117 -130 38 -33 c21 -18 42 -33 46 -33 4 0 62 61 129 135 67 74
127 135 134 135 7 0 48 -33 90 -72 l77 -73 -217 -240 c-119 -132 -222 -240
-229 -240 -16 0 -655 575 -655 589 0 11 38 54 287 329 112 122 137 145 151
137 9 -5 49 -39 87 -74z m-4155 -101 c25 -3 83 -24 130 -47 69 -33 100 -57
170 -127 86 -87 147 -176 152 -221 3 -22 -8 -30 -87 -72 -49 -26 -93 -48 -97
-48 -4 0 -19 23 -34 52 -32 63 -116 153 -166 179 -83 42 -163 34 -240 -26 -88
-67 -116 -182 -67 -280 25 -50 129 -154 180 -180 17 -9 29 -21 27 -27 -10 -28
-115 -167 -127 -168 -26 0 -138 80 -199 143 -132 138 -188 266 -180 412 4 69
10 95 38 151 44 90 136 181 224 223 62 30 164 52 211 45 11 -1 40 -5 65 -9z
m3568 -487 c47 -85 50 -94 35 -105 -9 -7 -81 -50 -160 -95 l-142 -81 21 -39
c12 -21 26 -38 30 -38 5 0 71 36 148 80 77 44 143 80 147 80 8 0 113 -175 113
-189 0 -4 -65 -44 -145 -90 -80 -45 -145 -87 -145 -93 0 -8 31 -66 46 -87 2
-2 75 38 164 89 88 50 167 90 174 87 14 -6 106 -162 106 -181 0 -11 -531 -319
-559 -324 -12 -2 -77 104 -231 375 -118 207 -215 381 -215 387 0 12 523 315
546 315 10 1 35 -34 67 -91z m-2749 -83 c154 -37 305 -152 367 -282 36 -76 45
-201 19 -289 -70 -243 -274 -387 -504 -354 -230 32 -411 187 -451 384 -37 183
72 408 242 501 100 55 208 68 327 40z m2035 -252 c8 -38 18 -87 22 -109 l6
-42 -68 -15 c-38 -9 -116 -25 -174 -38 -58 -12 -106 -23 -108 -24 -8 -6 21
-105 31 -105 7 0 80 14 164 32 84 17 155 29 158 27 9 -10 48 -209 42 -215 -3
-4 -77 -22 -163 -40 -86 -18 -158 -35 -160 -36 -1 -2 12 -71 29 -155 18 -83
29 -154 26 -157 -11 -11 -252 -57 -259 -50 -4 5 -42 171 -84 369 -42 198 -83
389 -91 425 -8 35 -12 67 -9 70 7 7 562 127 596 129 25 1 27 -3 42 -66z
m-1064 -39 c157 -15 290 -30 295 -35 8 -6 8 -40 0 -111 -8 -85 -13 -103 -27
-106 -10 -2 -91 4 -179 13 -89 8 -163 14 -164 13 -1 -2 -5 -26 -8 -55 -7 -61
-20 -56 182 -74 98 -9 145 -17 148 -26 6 -14 -13 -203 -21 -210 -3 -3 -78 1
-168 10 -90 8 -164 14 -165 13 -1 -1 -7 -51 -12 -111 -6 -61 -14 -132 -17
-159 l-6 -49 -82 7 c-187 15 -186 15 -186 50 0 37 69 801 76 834 6 28 -11 28
334 -4z"/>
<path d="M4694 7958 c3 -101 9 -202 12 -226 l6 -43 57 6 c80 9 160 51 195 101
58 85 44 228 -29 293 -43 37 -90 51 -179 51 l-69 0 7 -182z"/>
<path d="M3697 7878 c-53 -23 -53 -21 -10 -114 l24 -54 49 25 c27 14 56 35 64
47 35 50 5 118 -51 118 -16 -1 -49 -10 -76 -22z"/>
<path d="M2858 7208 c10 -18 34 -59 51 -90 18 -32 36 -58 40 -58 4 0 24 17 45
39 l38 39 -91 51 c-50 28 -93 51 -97 51 -3 0 3 -15 14 -32z"/>
<path d="M4771 7069 c-748 -79 -1413 -581 -1697 -1281 -131 -325 -179 -676
-140 -1017 10 -80 21 -151 25 -159 5 -9 13 16 20 64 49 310 140 578 252 740
45 67 123 137 187 169 124 62 150 73 232 95 72 20 107 23 234 21 263 -2 313
-22 709 -274 103 -65 190 -118 192 -115 2 2 -23 48 -57 103 -154 254 -212 431
-212 650 0 136 17 232 71 400 70 218 169 381 320 525 l94 90 -73 -1 c-40 -1
-111 -6 -157 -10z"/>
<path d="M6604 6363 c-33 -33 2 -283 49 -347 10 -14 21 -17 40 -12 52 13 59
129 16 254 -34 99 -72 137 -105 105z"/>
<path d="M5860 6198 c-64 -34 -86 -121 -56 -222 28 -93 82 -146 149 -146 103
0 139 144 70 279 -43 82 -107 118 -163 89z"/>
<path d="M6388 6006 c-43 -23 -60 -36 -144 -114 -135 -126 -220 -175 -512
-297 -30 -13 -59 -28 -65 -34 -6 -6 -15 -11 -20 -11 -5 0 -15 -6 -23 -14 -12
-12 -8 -17 28 -36 72 -37 162 -67 224 -74 32 -4 79 -12 104 -17 53 -12 128 -5
226 21 98 26 169 68 331 194 13 10 27 15 30 12 4 -4 -29 -42 -73 -85 -93 -92
-175 -137 -304 -169 -224 -55 -388 -45 -592 36 -126 51 -129 51 -187 -6 -57
-54 -61 -73 -32 -131 52 -101 257 -212 491 -265 75 -17 161 -14 213 9 10 4 71
5 135 2 64 -4 174 -9 244 -13 283 -15 563 63 626 174 27 49 28 64 1 82 -55 39
-54 38 -42 51 6 6 9 17 6 24 -2 7 5 16 16 20 22 7 29 39 10 50 -6 4 -7 14 -3
24 4 9 10 34 13 56 4 25 13 43 26 50 51 26 65 43 76 94 10 49 9 55 -15 91 -29
44 -120 120 -142 120 -9 0 -13 -4 -9 -9 3 -6 -11 -13 -32 -16 -21 -3 -61 -12
-89 -20 -28 -8 -57 -15 -64 -15 -21 0 7 27 58 58 25 14 41 27 36 29 -16 5
-146 -24 -153 -34 -12 -18 -131 -94 -129 -82 2 7 -11 16 -29 21 -29 7 -63 40
-63 60 0 5 9 8 20 8 11 0 20 3 20 7 0 8 -78 113 -102 136 -25 25 -77 31 -110
13z m202 -633 c-14 -9 -27 -20 -30 -23 -7 -9 -47 -30 -57 -30 -4 0 14 16 41
35 27 19 54 35 60 35 6 0 -1 -8 -14 -17z m354 -162 c11 -4 21 -17 22 -29 3
-17 -6 -24 -54 -42 -31 -12 -79 -24 -107 -27 l-50 -5 25 21 c14 11 29 21 33
21 4 0 21 16 38 35 31 35 54 41 93 26z"/>
<path d="M7046 5121 c-5 -7 -46 -31 -91 -52 -89 -42 -215 -69 -320 -69 -34 0
-64 -3 -68 -6 -8 -8 22 -66 62 -121 23 -33 38 -43 59 -43 55 0 247 -99 309
-159 44 -42 46 -37 64 214 12 168 6 270 -15 236z"/>
<path d="M3675 2606 c-99 -45 -173 -193 -153 -306 9 -52 31 -86 78 -117 78
-53 158 -39 237 42 42 44 56 67 74 125 32 108 15 182 -57 236 -43 33 -130 43
-179 20z"/>
</g>
</svg>
